<?xml version="1.0" encoding="UTF-8" standalone="no"?>
<!DOCTYPE svg PUBLIC "-//W3C//DTD SVG 1.1//EN" "http://www.w3.org/Graphics/SVG/1.1/DTD/svg11.dtd">
<svg width="100%" height="100%" viewBox="0 0 504 504" version="1.1" xmlns="http://www.w3.org/2000/svg" xmlns:xlink="http://www.w3.org/1999/xlink" xml:space="preserve" xmlns:serif="http://www.serif.com/" style="fill-rule:evenodd;clip-rule:evenodd;stroke-linecap:round;stroke-linejoin:round;stroke-miterlimit:1.5;">
    <g transform="matrix(1,0,0,1,-1703.31,-52.6097)">
        <g id="Logo-orange-complete" serif:id="Logo orange complete" transform="matrix(0.0529167,0,0,0.0529167,2071.4,-70.8902)">
            <g transform="matrix(0.944175,0,0,0.944175,-23546.4,685.888)">
                <circle cx="22615.1" cy="6789.12" r="5003.75" style="fill:none;stroke:rgb(51,102,153);stroke-width:79.93px;"/>
            </g>
            <g id="Text">
                <g transform="matrix(-0.764494,-0.791984,0.791984,-0.764494,-4318.52,16552.4)">
                    <path d="M1821.07,5163.52C1756.62,5111.69 1717.27,5059.99 1703,5008.44C1688.73,4956.89 1700.25,4907.92 1737.56,4861.54C1775.03,4814.96 1820.15,4793.41 1872.93,4796.88C1925.71,4800.35 1984.42,4828.08 2049.05,4880.07C2115.97,4933.9 2156.44,4985.47 2170.47,5034.79C2184.49,5084.11 2171.71,5133.39 2132.1,5182.63C2093.88,5230.16 2048.97,5252.12 1997.39,5248.52C1945.81,5244.91 1887.04,5216.58 1821.07,5163.52ZM1885.75,5083.11C1919.21,5110.02 1947.29,5129.32 1969.99,5141C1992.68,5152.68 2011.86,5157.93 2027.53,5156.75C2043.19,5155.57 2057.29,5147.19 2069.83,5131.6C2082.98,5115.25 2088.6,5099.11 2086.7,5083.18C2084.8,5067.25 2075.67,5049.5 2059.32,5029.93C2042.97,5010.36 2018.06,4987.11 1984.6,4960.2C1951.53,4933.6 1923.55,4914.46 1900.68,4902.8C1877.82,4891.14 1858.47,4885.99 1842.66,4887.36C1826.84,4888.73 1812.66,4897.21 1800.12,4912.8C1782.39,4934.85 1780.06,4958.96 1793.13,4985.13C1806.21,5011.31 1837.08,5043.96 1885.75,5083.11ZM1925.61,4963.48L1996.62,5020.59L1947.31,5081.9L1876.3,5024.79L1925.61,4963.48Z" style="fill:rgb(51,102,153);fill-rule:nonzero;"/>
                </g>
                <g transform="matrix(-0.764494,-0.791984,0.791984,-0.764494,-4318.52,16552.4)">
                    <path d="M1531.66,5147.35L1597.09,5186.95L1523.38,5308.73L1802.32,5477.58C1790.13,5459.08 1785.55,5434.14 1788.58,5402.75C1791.61,5371.36 1801.21,5342.31 1817.38,5315.59L1884.38,5356.15C1866.82,5385.16 1857.46,5414.99 1856.29,5445.66C1855.13,5476.32 1862.17,5504.26 1877.43,5529.47L1827.02,5612.74L1470.12,5396.71L1408.92,5497.83L1343.48,5458.22L1531.66,5147.35Z" style="fill:rgb(51,102,153);fill-rule:nonzero;"/>
                </g>
                <g transform="matrix(-0.764494,-0.791984,0.791984,-0.764494,-4318.52,16552.4)">
                    <path d="M1271.12,5598.19L1341.17,5628.89L1284.03,5759.27L1582.68,5890.15C1568.17,5873.4 1560.37,5849.27 1559.26,5817.76C1558.16,5786.24 1563.87,5756.18 1576.41,5727.58L1648.14,5759.01C1634.53,5790.07 1629.15,5820.88 1632.01,5851.44C1634.87,5881.99 1645.51,5908.76 1663.93,5931.75L1624.86,6020.91L1242.76,5853.46L1195.31,5961.72L1125.26,5931.02L1271.12,5598.19Z" style="fill:rgb(51,102,153);fill-rule:nonzero;"/>
                </g>
                <g transform="matrix(-0.764494,-0.791984,0.791984,-0.764494,-4318.52,16552.4)">
                    <path d="M1071.47,6080.52L1144.96,6101.72L1105.5,6238.5L1418.79,6328.87C1402.21,6314.19 1391.29,6291.3 1386.04,6260.2C1380.79,6229.1 1382.5,6198.55 1391.15,6168.55L1466.4,6190.26C1457,6222.84 1455.73,6254.09 1462.59,6284C1469.45,6313.91 1483.53,6339.04 1504.82,6359.41L1477.84,6452.94L1077,6337.3L1044.24,6450.87L970.747,6429.67L1071.47,6080.52Z" style="fill:rgb(51,102,153);fill-rule:nonzero;"/>
                </g>
                <g transform="matrix(-0.764494,-0.791984,0.791984,-0.764494,-4318.52,16552.4)">
                    <path d="M1128.99,6968C1047.24,6955.49 987.257,6930.52 949.052,6893.08C910.847,6855.65 896.245,6807.51 905.247,6748.66C914.286,6689.58 942.505,6648.3 989.905,6624.82C1037.31,6601.34 1102,6595.88 1184,6608.42C1268.89,6621.41 1329.77,6645.72 1366.65,6681.34C1403.53,6716.97 1417.19,6766.02 1407.63,6828.48C1398.41,6888.77 1370.58,6930.3 1324.16,6953.06C1277.73,6975.82 1212.67,6980.8 1128.99,6968ZM1144.6,6865.99C1187.04,6872.48 1221.01,6875.08 1246.51,6873.8C1272,6872.52 1291.23,6867.44 1304.18,6858.56C1317.14,6849.68 1325.13,6835.36 1328.16,6815.58C1331.33,6794.84 1328.1,6778.06 1318.46,6765.23C1308.82,6752.4 1292.02,6741.62 1268.06,6732.9C1244.1,6724.17 1210.89,6716.57 1168.45,6710.07C1126.49,6703.65 1092.69,6701.14 1067.06,6702.52C1041.42,6703.9 1022.11,6709.16 1009.11,6718.28C996.118,6727.39 988.108,6741.84 985.082,6761.62C980.803,6789.59 990.884,6811.62 1015.33,6827.7C1039.77,6843.78 1082.86,6856.54 1144.6,6865.99ZM1119.06,6742.5L1209.14,6756.28L1197.24,6834.06L1107.16,6820.28L1119.06,6742.5Z" style="fill:rgb(51,102,153);fill-rule:nonzero;"/>
                </g>
                <g transform="matrix(-0.764494,-0.791984,0.791984,-0.764494,-4318.52,16552.4)">
                    <path d="M1110.46,7454.46C1027.78,7452.66 965.067,7435.67 922.331,7403.51C879.596,7371.34 858.877,7325.5 860.174,7265.98C861.477,7206.22 884.107,7161.63 928.064,7132.21C972.02,7102.79 1035.46,7088.98 1118.39,7090.79C1204.25,7092.66 1267.77,7108.87 1308.96,7139.42C1350.14,7169.96 1370.05,7216.82 1368.67,7280C1367.34,7340.98 1345.13,7385.76 1302.05,7414.35C1258.96,7442.94 1195.1,7456.31 1110.46,7454.46ZM1112.71,7351.29C1155.64,7352.22 1189.66,7350.4 1214.78,7345.82C1239.89,7341.25 1258.29,7333.72 1269.99,7323.24C1281.69,7312.75 1287.76,7297.51 1288.19,7277.51C1288.65,7256.53 1283.27,7240.31 1272.05,7228.84C1260.83,7217.37 1242.78,7208.86 1217.88,7203.32C1192.99,7197.77 1159.08,7194.53 1116.15,7193.6C1073.71,7192.67 1039.87,7194.56 1014.63,7199.25C989.398,7203.95 970.927,7211.66 959.224,7222.39C947.521,7233.11 941.451,7248.48 941.015,7268.48C940.398,7296.77 953.25,7317.31 979.571,7330.08C1005.89,7342.86 1050.27,7349.93 1112.71,7351.29ZM1071.39,7232.15L1162.49,7234.14L1160.77,7312.8L1069.67,7310.82L1071.39,7232.15Z" style="fill:rgb(51,102,153);fill-rule:nonzero;"/>
                </g>
                <g transform="matrix(-0.764494,-0.791984,0.791984,-0.764494,-4318.52,16552.4)">
                    <path d="M871.144,7619.58L947.16,7611.12L962.903,7752.61L1286.97,7716.55C1266.03,7709.3 1247.21,7692.31 1230.48,7665.57C1213.76,7638.84 1203.67,7609.95 1200.22,7578.91L1278.06,7570.25C1281.81,7603.96 1292.56,7633.32 1310.32,7658.35C1328.08,7683.37 1350.68,7701.23 1378.14,7711.93L1388.9,7808.67L974.275,7854.81L987.346,7972.29L911.331,7980.74L871.144,7619.58Z" style="fill:rgb(51,102,153);fill-rule:nonzero;"/>
                </g>
                <g transform="matrix(-0.764494,-0.791984,0.791984,-0.764494,-4318.52,16552.4)">
                    <path d="M1262.9,8417.89C1182.56,8437.51 1117.59,8437.31 1067.99,8417.28C1018.39,8397.25 986.531,8358.32 972.404,8300.49C958.22,8242.42 968.558,8193.5 1003.42,8153.72C1038.28,8113.93 1096,8084.2 1176.58,8064.52C1260,8044.14 1325.56,8043.38 1373.24,8062.25C1420.91,8081.11 1452.25,8121.24 1467.25,8182.62C1481.72,8241.87 1471.84,8290.87 1437.61,8329.62C1403.38,8368.38 1345.14,8397.8 1262.9,8417.89ZM1238.41,8317.63C1280.12,8307.44 1312.52,8296.89 1335.59,8285.98C1358.67,8275.07 1374.51,8263.04 1383.1,8249.89C1391.69,8236.74 1393.61,8220.45 1388.86,8201.02C1383.88,8180.64 1374.49,8166.35 1360.69,8158.17C1346.89,8149.99 1327.25,8146.44 1301.77,8147.51C1276.29,8148.59 1242.69,8154.22 1200.98,8164.41C1159.74,8174.49 1127.54,8185.05 1104.37,8196.11C1081.21,8207.17 1065.36,8219.39 1056.82,8232.78C1048.29,8246.17 1046.4,8262.58 1051.14,8282.01C1057.86,8309.5 1075.58,8326.02 1104.31,8331.56C1133.04,8337.1 1177.74,8332.45 1238.41,8317.63ZM1167.7,8213.23L1256.22,8191.6L1274.89,8268.04L1186.37,8289.66L1167.7,8213.23Z" style="fill:rgb(51,102,153);fill-rule:nonzero;"/>
                </g>
                <g transform="matrix(-0.764494,-0.791984,0.791984,-0.764494,-4318.52,16552.4)">
                    <path d="M1432.08,8874.88C1355.01,8904.89 1290.57,8913.21 1238.78,8899.87C1186.98,8886.52 1150.28,8852.11 1128.69,8796.64C1107,8740.94 1110.83,8691.08 1140.16,8647.06C1169.5,8603.05 1222.81,8566 1300.11,8535.9C1380.14,8504.75 1445.03,8495.39 1494.77,8507.84C1544.51,8520.28 1580.85,8555.94 1603.77,8614.83C1625.9,8671.66 1622.54,8721.54 1593.69,8764.45C1564.84,8807.36 1510.97,8844.17 1432.08,8874.88ZM1394.64,8778.71C1434.65,8763.13 1465.38,8748.42 1486.83,8734.58C1508.27,8720.73 1522.39,8706.72 1529.18,8692.56C1535.97,8678.4 1535.74,8662 1528.48,8643.35C1520.87,8623.8 1509.68,8610.88 1494.93,8604.58C1480.17,8598.28 1460.23,8597.34 1435.12,8601.75C1410,8606.16 1377.43,8616.15 1337.42,8631.73C1297.86,8647.13 1267.32,8661.83 1245.81,8675.84C1224.3,8689.84 1210.19,8704.04 1203.49,8718.43C1196.78,8732.82 1197.06,8749.34 1204.32,8767.98C1214.59,8794.35 1234.32,8808.4 1263.53,8810.12C1292.74,8811.84 1336.44,8801.37 1394.64,8778.71ZM1310.84,8684.49L1395.75,8651.43L1424.29,8724.75L1339.38,8757.81L1310.84,8684.49Z" style="fill:rgb(51,102,153);fill-rule:nonzero;"/>
                </g>
                <g transform="matrix(-0.764494,-0.791984,0.791984,-0.764494,-4318.52,16552.4)">
                    <path d="M1274.88,9119.71L1341.78,9082.65L1410.76,9207.18L1695.99,9049.2C1673.88,9050.57 1649.97,9042.13 1624.25,9023.89C1598.52,9005.64 1578.1,8982.86 1562.97,8955.54L1631.47,8917.6C1647.9,8947.26 1669.13,8970.23 1695.15,8986.5C1721.17,9002.76 1748.91,9010.55 1778.37,9009.85L1825.53,9095L1460.58,9297.14L1517.85,9400.54L1450.94,9437.6L1274.88,9119.71Z" style="fill:rgb(51,102,153);fill-rule:nonzero;"/>
                </g>
                <g transform="matrix(-0.764494,-0.791984,0.791984,-0.764494,-4318.52,16552.4)">
                    <path d="M1536.48,9570.15L1597.98,9524.68L1682.61,9639.15L1944.8,9445.3C1923.06,9449.54 1898.25,9444.3 1870.36,9429.57C1842.48,9414.84 1819.26,9394.91 1800.69,9369.8L1863.66,9323.25C1883.82,9350.51 1907.87,9370.51 1935.79,9383.25C1963.71,9395.98 1992.22,9400.08 2021.34,9395.54L2079.21,9473.82L1743.75,9721.84L1814.02,9816.88L1752.52,9862.35L1536.48,9570.15Z" style="fill:rgb(51,102,153);fill-rule:nonzero;"/>
                </g>
                <g transform="matrix(-0.764494,-0.791984,0.791984,-0.764494,-4318.52,16552.4)">
                    <path d="M2274.71,10063.4C2214.98,10120.6 2158.63,10152.9 2105.67,10160.4C2052.7,10167.9 2005.64,10150.2 1964.46,10107.2C1923.12,10064 1907.58,10016.5 1917.85,9964.59C1928.11,9912.69 1963.2,9858.06 2023.1,9800.69C2085.12,9741.29 2141.5,9707.82 2192.22,9700.29C2242.94,9692.76 2290.15,9711.81 2333.86,9757.44C2376.04,9801.49 2392.02,9848.86 2381.78,9899.54C2371.54,9950.22 2335.85,10004.8 2274.71,10063.4ZM2203.33,9988.87C2234.34,9959.17 2257.1,9933.82 2271.62,9912.82C2286.13,9891.83 2293.82,9873.49 2294.68,9857.8C2295.53,9842.12 2289.04,9827.05 2275.21,9812.6C2260.69,9797.45 2245.41,9789.79 2229.37,9789.61C2213.33,9789.44 2194.55,9796.19 2173.03,9809.88C2151.51,9823.56 2125.24,9845.26 2094.23,9874.96C2063.57,9904.32 2040.98,9929.58 2026.46,9950.75C2011.94,9971.92 2004.34,9990.44 2003.65,10006.3C2002.96,10022.2 2009.54,10037.3 2023.38,10051.8C2042.95,10072.2 2066.56,10077.6 2094.2,10068C2121.85,10058.5 2158.22,10032.1 2203.33,9988.87ZM2089.85,9933.87L2155.66,9870.85L2210.08,9927.67L2144.28,9990.7L2089.85,9933.87Z" style="fill:rgb(51,102,153);fill-rule:nonzero;"/>
                </g>
                <g transform="matrix(-0.764494,-0.791984,0.791984,-0.764494,-4318.52,16552.4)">
                    <path d="M2649.84,10375.3C2598.03,10439.7 2546.35,10479.1 2494.8,10493.4C2443.26,10507.7 2394.29,10496.2 2347.89,10458.9C2301.3,10421.4 2279.73,10376.3 2283.18,10323.5C2286.63,10270.8 2314.34,10212 2366.3,10147.4C2420.1,10080.4 2471.66,10039.9 2520.98,10025.9C2570.29,10011.9 2619.58,10024.6 2668.83,10064.2C2716.37,10102.4 2738.35,10147.3 2734.77,10198.9C2731.18,10250.5 2702.88,10309.3 2649.84,10375.3ZM2569.4,10310.6C2596.3,10277.1 2615.59,10249.1 2627.26,10226.4C2638.93,10203.6 2644.17,10184.5 2642.99,10168.8C2641.81,10153.1 2633.42,10139 2617.82,10126.5C2601.47,10113.4 2585.33,10107.8 2569.4,10109.7C2553.47,10111.6 2535.72,10120.7 2516.15,10137.1C2496.59,10153.4 2473.36,10178.3 2446.46,10211.8C2419.87,10244.9 2400.74,10272.9 2389.09,10295.7C2377.43,10318.6 2372.3,10338 2373.67,10353.8C2375.04,10369.6 2383.53,10383.8 2399.12,10396.3C2421.18,10414 2445.29,10416.3 2471.46,10403.3C2497.63,10390.2 2530.28,10359.3 2569.4,10310.6ZM2449.76,10270.8L2506.84,10199.8L2568.17,10249.1L2511.08,10320.1L2449.76,10270.8Z" style="fill:rgb(51,102,153);fill-rule:nonzero;"/>
                </g>
                <g transform="matrix(-0.764494,-0.791984,0.791984,-0.764494,-4318.52,16552.4)">
                    <path d="M3063.57,10636.4C3020.61,10707.1 2974.51,10752.9 2925.27,10773.7C2876.03,10794.6 2825.97,10789.6 2775.1,10758.7C2724.03,10727.6 2696.76,10685.7 2693.3,10632.9C2689.84,10580.2 2709.65,10518.3 2752.74,10447.4C2797.35,10374.1 2843.18,10327.2 2890.24,10306.8C2937.31,10286.5 2987.84,10292.7 3041.83,10325.5C3093.95,10357.2 3121.6,10398.9 3124.77,10450.5C3127.95,10502.1 3107.55,10564.1 3063.57,10636.4ZM2975.39,10582.8C2997.69,10546.1 3013.15,10515.7 3021.76,10491.7C3030.37,10467.7 3033.07,10448 3029.85,10432.6C3026.64,10417.2 3016.48,10404.3 2999.39,10394C2981.46,10383.1 2964.72,10379.6 2949.17,10383.6C2933.63,10387.5 2917.22,10398.9 2899.96,10417.7C2882.7,10436.4 2862.91,10464.2 2840.61,10500.9C2818.56,10537.1 2803.25,10567.4 2794.68,10591.6C2786.11,10615.8 2783.53,10635.6 2786.96,10651.1C2790.38,10666.6 2800.64,10679.6 2817.74,10690C2841.92,10704.7 2866.13,10703.8 2890.37,10687.4C2914.61,10671 2942.95,10636.2 2975.39,10582.8ZM2851.57,10558.9L2898.9,10481.1L2966.14,10521.9L2918.8,10599.8L2851.57,10558.9Z" style="fill:rgb(51,102,153);fill-rule:nonzero;"/>
                </g>
                <g transform="matrix(-0.764494,-0.791984,0.791984,-0.764494,-4318.52,16552.4)">
                    <path d="M3507.05,10840.7C3473.71,10916.4 3434,10967.8 3387.91,10995C3341.83,11022.1 3291.55,11023.7 3237.07,10999.7C3182.37,10975.6 3149.85,10937.6 3139.51,10885.8C3129.17,10833.9 3140.72,10770 3174.16,10694.1C3208.78,10615.5 3248.09,10563 3292.08,10536.7C3336.08,10510.4 3386.99,10509.9 3444.81,10535.4C3500.63,10560 3533.49,10597.6 3543.39,10648.4C3553.29,10699.1 3541.18,10763.3 3507.05,10840.7ZM3412.61,10799.1C3429.92,10759.8 3441.27,10727.7 3446.66,10702.8C3452.06,10677.8 3452.15,10657.9 3446.95,10643.1C3441.75,10628.3 3430,10616.8 3411.69,10608.8C3392.49,10600.3 3375.44,10599.1 3360.55,10605C3345.65,10611 3330.88,10624.4 3316.22,10645.3C3301.56,10666.2 3285.58,10696.2 3268.27,10735.5C3251.16,10774.4 3239.93,10806.4 3234.6,10831.5C3229.27,10856.6 3229.32,10876.6 3234.74,10891.5C3240.17,10906.4 3252.04,10917.9 3270.34,10926C3296.24,10937.4 3320.13,10933.4 3342.02,10914C3363.9,10894.6 3387.43,10856.3 3412.61,10799.1ZM3286.73,10791.7L3323.47,10708.3L3395.47,10740L3358.74,10823.4L3286.73,10791.7Z" style="fill:rgb(51,102,153);fill-rule:nonzero;"/>
                </g>
                <g transform="matrix(-0.764494,-0.791984,0.791984,-0.764494,-4318.52,16552.4)">
                    <path d="M3567.16,11124.5L3588.33,11051L3725.12,11090.4L3815.38,10777.1C3800.7,10793.7 3777.81,10804.6 3746.72,10809.9C3715.62,10815.1 3685.07,10813.5 3655.06,10804.8L3676.74,10729.6C3709.33,10738.9 3740.57,10740.2 3770.48,10733.3C3800.39,10726.5 3825.52,10712.4 3845.88,10691.1L3939.41,10718L3823.94,11118.9L3937.52,11151.6L3916.35,11225.1L3567.16,11124.5Z" style="fill:rgb(51,102,153);fill-rule:nonzero;"/>
                </g>
                <g transform="matrix(-0.764494,-0.791984,0.791984,-0.764494,-4318.52,16552.4)">
                    <path d="M4454.64,11066.7C4442.16,11148.4 4417.22,11208.4 4379.8,11246.6C4342.37,11284.9 4294.24,11299.5 4235.39,11290.5C4176.3,11281.5 4135.01,11253.3 4111.52,11205.9C4088.02,11158.5 4082.53,11093.8 4095.04,11011.8C4107.99,10926.9 4132.28,10866 4167.89,10829.1C4203.51,10792.2 4252.55,10778.5 4315.01,10788.1C4375.31,10797.3 4416.84,10825.1 4439.62,10871.5C4462.4,10917.9 4467.41,10983 4454.64,11066.7ZM4352.62,11051.1C4359.1,11008.6 4361.69,10974.7 4360.4,10949.2C4359.1,10923.7 4354.01,10904.5 4345.13,10891.5C4336.25,10878.6 4321.92,10870.6 4302.14,10867.6C4281.4,10864.4 4264.62,10867.6 4251.8,10877.3C4238.97,10886.9 4228.2,10903.7 4219.49,10927.7C4210.77,10951.7 4203.17,10984.9 4196.7,11027.3C4190.29,11069.3 4187.79,11103.1 4189.19,11128.7C4190.58,11154.3 4195.84,11173.6 4204.96,11186.6C4214.09,11199.6 4228.54,11207.6 4248.31,11210.7C4276.29,11214.9 4298.31,11204.8 4314.38,11180.4C4330.45,11155.9 4343.2,11112.8 4352.62,11051.1ZM4229.14,11076.7L4242.89,10986.6L4320.67,10998.5L4306.93,11088.5L4229.14,11076.7Z" style="fill:rgb(51,102,153);fill-rule:nonzero;"/>
                </g>
                <g transform="matrix(-0.764494,-0.791984,0.791984,-0.764494,-4318.52,16552.4)">
                    <path d="M4587.13,11325L4588.52,11248.6L4730.86,11251.2L4736.8,10925.2C4726.92,10945 4707.65,10961.5 4678.98,10974.6C4650.32,10987.8 4620.37,10994 4589.15,10993.5L4590.58,10915.2C4624.48,10915.8 4654.99,10908.9 4682.09,10894.5C4709.2,10880.1 4729.82,10860 4743.95,10834.2L4841.28,10835.9L4833.67,11253L4951.86,11255.2L4950.46,11331.7L4587.13,11325Z" style="fill:rgb(51,102,153);fill-rule:nonzero;"/>
                </g>
                <g transform="matrix(-0.764494,-0.791984,0.791984,-0.764494,-4318.52,16552.4)">
                    <path d="M5106.33,11324.3L5097.84,11248.2L5239.32,11232.4L5203.14,10908.4C5195.9,10929.3 5178.92,10948.2 5152.19,10964.9C5125.45,10981.6 5096.57,10991.7 5065.54,10995.2L5056.85,10917.4C5090.55,10913.6 5119.91,10902.8 5144.93,10885.1C5169.95,10867.3 5187.8,10844.7 5198.48,10817.2L5295.22,10806.4L5341.52,11221L5458.99,11207.9L5467.48,11283.9L5106.33,11324.3Z" style="fill:rgb(51,102,153);fill-rule:nonzero;"/>
                </g>
                <g transform="matrix(-0.764494,-0.791984,0.791984,-0.764494,-4318.52,16552.4)">
                    <path d="M5904.45,10932.2C5924.11,11012.5 5923.94,11077.5 5903.93,11127.1C5883.91,11176.7 5845,11208.6 5787.17,11222.7C5729.11,11236.9 5680.19,11226.6 5640.39,11191.8C5600.59,11156.9 5570.84,11099.2 5551.12,11018.7C5530.71,10935.2 5529.93,10869.7 5548.78,10822C5567.62,10774.3 5607.73,10743 5669.11,10727.9C5728.36,10713.4 5777.36,10723.3 5816.13,10757.5C5854.89,10791.7 5884.33,10850 5904.45,10932.2ZM5804.21,10956.7C5794.01,10915 5783.44,10882.6 5772.52,10859.5C5761.6,10836.5 5749.57,10820.6 5736.41,10812.1C5723.26,10803.5 5706.97,10801.6 5687.54,10806.3C5667.16,10811.3 5652.88,10820.7 5644.7,10834.5C5636.53,10848.3 5632.98,10868 5634.07,10893.4C5635.15,10918.9 5640.8,10952.5 5651.01,10994.2C5661.1,11035.4 5671.68,11067.6 5682.74,11090.8C5693.81,11114 5706.04,11129.8 5719.43,11138.3C5732.82,11146.9 5749.23,11148.8 5768.66,11144C5796.15,11137.3 5812.66,11119.5 5818.19,11090.8C5823.72,11062.1 5819.06,11017.4 5804.21,10956.7ZM5699.84,11027.5L5678.18,10939L5754.6,10920.3L5776.26,11008.8L5699.84,11027.5Z" style="fill:rgb(51,102,153);fill-rule:nonzero;"/>
                </g>
                <g transform="matrix(-0.764494,-0.791984,0.791984,-0.764494,-4318.52,16552.4)">
                    <path d="M6362.66,10762.3C6392.73,10839.3 6401.11,10903.7 6387.8,10955.5C6374.49,11007.4 6340.11,11044.1 6284.66,11065.7C6228.97,11087.4 6179.11,11083.7 6135.07,11054.4C6091.04,11025.1 6053.94,10971.8 6023.79,10894.5C5992.57,10814.5 5983.17,10749.6 5995.57,10699.9C6007.98,10650.1 6043.61,10613.7 6102.48,10590.8C6159.3,10568.6 6209.18,10571.9 6252.11,10600.7C6295.04,10629.6 6331.89,10683.4 6362.66,10762.3ZM6266.53,10799.8C6250.92,10759.8 6236.18,10729.1 6222.32,10707.6C6208.45,10686.2 6194.44,10672.1 6180.27,10665.3C6166.1,10658.5 6149.7,10658.8 6131.06,10666C6111.52,10673.7 6098.6,10684.9 6092.31,10699.6C6086.03,10714.4 6085.1,10734.3 6089.53,10759.4C6093.96,10784.5 6103.98,10817.1 6119.59,10857.1C6135.02,10896.7 6149.74,10927.2 6163.77,10948.7C6177.79,10970.2 6191.99,10984.3 6206.39,10991C6220.79,10997.7 6237.3,10997.4 6255.94,10990.1C6282.3,10979.8 6296.34,10960.1 6298.03,10930.9C6299.73,10901.7 6289.23,10858 6266.53,10799.8ZM6172.37,10883.7L6139.25,10798.8L6212.55,10770.2L6245.67,10855.1L6172.37,10883.7Z" style="fill:rgb(51,102,153);fill-rule:nonzero;"/>
                </g>
                <g transform="matrix(-0.764494,-0.791984,0.791984,-0.764494,-4318.52,16552.4)">
                    <path d="M6607.58,10919.3L6570.47,10852.4L6694.95,10783.3L6536.76,10498.2C6538.14,10520.3 6529.72,10544.3 6511.5,10570C6493.27,10595.7 6470.51,10616.2 6443.2,10631.3L6405.2,10562.8C6434.86,10546.4 6457.81,10525.1 6474.05,10499.1C6490.3,10473.1 6498.06,10445.3 6497.35,10415.9L6582.46,10368.7L6784.87,10733.5L6888.23,10676.1L6925.34,10743L6607.58,10919.3Z" style="fill:rgb(51,102,153);fill-rule:nonzero;"/>
                </g>
                <g transform="matrix(-0.764494,-0.791984,0.791984,-0.764494,-4318.52,16552.4)">
                    <path d="M7192.69,10250.8C7241.72,10317.4 7266.52,10377.4 7267.1,10430.9C7267.69,10484.4 7244.01,10528.8 7196.07,10564.1C7147.92,10599.5 7098.79,10608.8 7048.65,10591.9C6998.53,10575 6948.88,10533.2 6899.71,10466.4C6848.81,10397.2 6822.9,10337 6821.98,10285.7C6821.05,10234.4 6846.04,10190.1 6896.93,10152.6C6946.06,10116.5 6995.09,10106.7 7044.03,10123.4C7092.96,10140.1 7142.52,10182.6 7192.69,10250.8ZM7109.58,10311.9C7084.13,10277.3 7061.93,10251.5 7042.98,10234.4C7024.03,10217.3 7006.84,10207.3 6991.39,10204.4C6975.95,10201.6 6960.17,10206 6944.06,10217.9C6927.16,10230.3 6917.59,10244.5 6915.35,10260.4C6913.11,10276.3 6917.38,10295.8 6928.17,10318.9C6938.97,10342 6957.09,10370.8 6982.54,10405.4C7007.7,10439.6 7029.84,10465.3 7048.96,10482.4C7068.07,10499.5 7085.45,10509.5 7101.09,10512.2C7116.73,10514.9 7132.61,10510.3 7148.72,10498.5C7171.51,10481.7 7179.94,10459 7174.01,10430.4C7168.07,10401.7 7146.59,10362.2 7109.58,10311.9ZM7040.4,10417.4L6986.39,10344L7049.76,10297.3L7103.77,10370.7L7040.4,10417.4Z" style="fill:rgb(51,102,153);fill-rule:nonzero;"/>
                </g>
                <g transform="matrix(-0.764494,-0.791984,0.791984,-0.764494,-4318.52,16552.4)">
                    <path d="M7550.51,9918.76C7607.76,9978.45 7640.14,10034.8 7647.67,10087.7C7655.19,10140.7 7637.47,10187.8 7594.51,10229C7551.37,10270.4 7503.86,10285.9 7451.96,10275.7C7400.06,10265.5 7345.4,10230.4 7287.98,10170.6C7228.54,10108.6 7195.03,10052.2 7187.46,10001.5C7179.89,9950.81 7198.9,9903.58 7244.51,9859.84C7288.53,9817.62 7335.88,9801.61 7386.57,9811.82C7437.26,9822.02 7491.9,9857.67 7550.51,9918.76ZM7476.03,9990.2C7446.31,9959.21 7420.94,9936.47 7399.93,9921.97C7378.92,9907.47 7360.58,9899.79 7344.89,9898.95C7329.21,9898.1 7314.15,9904.61 7299.71,9918.45C7284.57,9932.98 7276.92,9948.26 7276.75,9964.31C7276.59,9980.35 7283.36,9999.13 7297.06,10020.6C7310.76,10042.1 7332.48,10068.4 7362.2,10099.4C7391.58,10130 7416.86,10152.6 7438.05,10167.1C7459.23,10181.6 7477.75,10189.2 7493.61,10189.9C7509.47,10190.5 7524.62,10184 7539.05,10170.1C7559.48,10150.5 7564.89,10126.9 7555.28,10099.3C7545.68,10071.6 7519.26,10035.3 7476.03,9990.2ZM7421.12,10103.7L7358.04,10038L7414.83,9983.49L7477.9,10049.3L7421.12,10103.7Z" style="fill:rgb(51,102,153);fill-rule:nonzero;"/>
                </g>
                <g transform="matrix(-0.764494,-0.791984,0.791984,-0.764494,-4318.52,16552.4)">
                    <path d="M7862.09,9543.4C7926.59,9595.16 7966.01,9646.81 7980.33,9698.34C7994.65,9749.88 7983.19,9798.86 7945.93,9845.29C7908.52,9891.91 7863.42,9913.51 7810.64,9910.1C7757.86,9906.68 7699.11,9879.02 7634.42,9827.1C7567.44,9773.36 7526.91,9721.83 7512.83,9672.52C7498.75,9623.22 7511.48,9573.92 7551.03,9524.64C7589.2,9477.07 7634.08,9455.06 7685.67,9458.6C7737.25,9462.15 7796.06,9490.41 7862.09,9543.4ZM7797.5,9623.89C7764.01,9597.01 7735.91,9577.75 7713.2,9566.09C7690.49,9554.44 7671.3,9549.21 7655.64,9550.4C7639.98,9551.6 7625.89,9560 7613.37,9575.6C7600.23,9591.96 7594.63,9608.11 7596.55,9624.04C7598.47,9639.97 7607.61,9657.71 7623.99,9677.26C7640.36,9696.81 7665.29,9720.03 7698.78,9746.9C7731.89,9773.47 7759.88,9792.57 7782.77,9804.21C7805.65,9815.84 7824.99,9820.97 7840.81,9819.58C7856.62,9818.2 7870.79,9809.7 7883.31,9794.1C7901.03,9772.03 7903.33,9747.91 7890.22,9721.76C7877.12,9695.6 7846.21,9662.98 7797.5,9623.89ZM7757.77,9743.56L7686.7,9686.53L7735.94,9625.17L7807.01,9682.2L7757.77,9743.56Z" style="fill:rgb(51,102,153);fill-rule:nonzero;"/>
                </g>
                <g transform="matrix(-0.764494,-0.791984,0.791984,-0.764494,-4318.52,16552.4)">
                    <path d="M8152.36,9557.98L8086.87,9518.48L8160.4,9396.58L7881.2,9228.16C7893.42,9246.64 7898.03,9271.57 7895.05,9302.97C7892.07,9334.36 7882.51,9363.43 7866.38,9390.17L7799.32,9349.72C7816.84,9320.68 7826.16,9290.83 7827.28,9260.16C7828.4,9229.49 7821.31,9201.57 7806.01,9176.39L7856.3,9093.03L8213.52,9308.53L8274.58,9207.32L8340.07,9246.82L8152.36,9557.98Z" style="fill:rgb(51,102,153);fill-rule:nonzero;"/>
                </g>
                <g transform="matrix(-0.764494,-0.791984,0.791984,-0.764494,-4318.52,16552.4)">
                    <path d="M8412.25,9106.7L8342.15,9076.11L8399.09,8945.64L8100.24,8815.22C8114.77,8831.94 8122.61,8856.06 8123.76,8887.57C8124.92,8919.09 8119.25,8949.15 8106.76,8977.77L8034.98,8946.45C8048.54,8915.37 8053.87,8884.55 8050.97,8854.01C8048.06,8823.46 8037.38,8796.7 8018.92,8773.74L8057.85,8684.52L8440.22,8851.39L8487.5,8743.05L8557.6,8773.64L8412.25,9106.7Z" style="fill:rgb(51,102,153);fill-rule:nonzero;"/>
                </g>
                <g transform="matrix(-0.764494,-0.791984,0.791984,-0.764494,-4318.52,16552.4)">
                    <path d="M8470.77,8219.53C8550.2,8242.58 8606.41,8275.15 8639.42,8317.24C8672.42,8359.34 8680.63,8408.97 8664.04,8466.14C8647.38,8523.54 8614.03,8560.8 8563.97,8577.9C8513.92,8595.01 8449.06,8592 8369.4,8568.88C8286.92,8544.95 8229.72,8512.92 8197.8,8472.79C8165.88,8432.67 8158.72,8382.26 8176.33,8321.57C8193.33,8263 8226.32,8225.45 8275.32,8208.93C8324.31,8192.41 8389.46,8195.94 8470.77,8219.53ZM8442.01,8318.64C8400.77,8306.68 8367.43,8299.67 8341.99,8297.62C8316.54,8295.58 8296.82,8298.11 8282.81,8305.22C8268.81,8312.34 8259.02,8325.5 8253.44,8344.71C8247.6,8364.86 8248.62,8381.92 8256.5,8395.9C8264.39,8409.87 8279.64,8422.75 8302.26,8434.52C8324.89,8446.29 8356.82,8458.16 8398.05,8470.12C8438.82,8481.95 8472.01,8488.85 8497.6,8490.82C8523.2,8492.78 8543.03,8490.09 8557.1,8482.74C8571.17,8475.39 8581,8462.11 8586.57,8442.9C8594.46,8415.72 8587.33,8392.57 8565.19,8373.44C8543.05,8354.32 8501.99,8336.05 8442.01,8318.64ZM8451.24,8444.4L8363.73,8419.01L8385.66,8343.45L8473.17,8368.84L8451.24,8444.4Z" style="fill:rgb(51,102,153);fill-rule:nonzero;"/>
                </g>
                <g transform="matrix(-0.764494,-0.791984,0.791984,-0.764494,-4318.52,16552.4)">
                    <path d="M8552.15,7737.95C8633.92,7750.36 8693.92,7775.26 8732.17,7812.65C8770.42,7850.05 8785.08,7898.17 8776.15,7957.02C8767.18,8016.12 8739.01,8057.43 8691.64,8080.97C8644.26,8104.5 8579.57,8110.04 8497.56,8097.59C8412.66,8084.71 8351.75,8060.47 8314.83,8024.89C8277.91,7989.3 8264.19,7940.27 8273.67,7877.8C8282.82,7817.5 8310.6,7775.94 8357,7753.12C8403.4,7730.31 8468.45,7725.25 8552.15,7737.95ZM8536.66,7839.98C8494.21,7833.54 8460.24,7830.98 8434.74,7832.29C8409.25,7833.6 8390.03,7838.7 8377.08,7847.6C8364.13,7856.49 8356.16,7870.82 8353.16,7890.6C8350.01,7911.35 8353.26,7928.13 8362.91,7940.94C8372.57,7953.76 8389.38,7964.52 8413.35,7973.21C8437.33,7981.91 8470.54,7989.48 8512.99,7995.92C8554.96,8002.29 8588.76,8004.77 8614.4,8003.36C8640.03,8001.94 8659.34,7996.67 8672.32,7987.53C8685.3,7978.4 8693.3,7963.94 8696.3,7944.16C8700.54,7916.18 8690.44,7894.17 8665.98,7878.12C8641.51,7862.07 8598.41,7849.36 8536.66,7839.98ZM8562.34,7963.44L8472.25,7949.77L8484.06,7871.98L8574.15,7885.65L8562.34,7963.44Z" style="fill:rgb(51,102,153);fill-rule:nonzero;"/>
                </g>
                <g transform="matrix(-0.764494,-0.791984,0.791984,-0.764494,-4318.52,16552.4)">
                    <path d="M8810.43,7605.18L8733.96,7603.85L8736.44,7461.52L8410.42,7455.83C8430.26,7465.69 8446.76,7484.95 8459.92,7513.61C8473.09,7542.26 8479.4,7572.2 8478.85,7603.43L8400.55,7602.06C8401.14,7568.15 8394.23,7537.65 8379.82,7510.56C8365.41,7483.47 8345.27,7462.87 8319.41,7448.75L8321.11,7351.42L8738.23,7358.7L8740.3,7240.51L8816.77,7241.85L8810.43,7605.18Z" style="fill:rgb(51,102,153);fill-rule:nonzero;"/>
                </g>
                <g transform="matrix(-0.764494,-0.791984,0.791984,-0.764494,-4318.52,16552.4)">
                    <path d="M8524.99,6764.53C8607.2,6755.52 8671.59,6764.16 8718.17,6790.47C8764.74,6816.78 8791.27,6859.52 8797.76,6918.69C8804.27,6978.11 8787.67,7025.27 8747.93,7060.19C8708.19,7095.1 8647.1,7117.08 8564.64,7126.12C8479.28,7135.49 8414.18,7127.72 8369.36,7102.81C8324.54,7077.91 8298.68,7034.05 8291.79,6971.24C8285.14,6910.61 8301.31,6863.31 8340.29,6829.34C8379.27,6795.36 8440.83,6773.76 8524.99,6764.53ZM8536.24,6867.12C8493.55,6871.8 8460.06,6878.05 8435.76,6885.87C8411.47,6893.69 8394.2,6903.56 8383.97,6915.48C8373.75,6927.4 8369.72,6943.3 8371.9,6963.19C8374.19,6984.04 8381.64,6999.43 8394.27,7009.33C8406.89,7019.24 8425.9,7025.31 8451.3,7027.56C8476.71,7029.8 8510.75,7028.59 8553.43,7023.9C8595.63,7019.28 8628.93,7012.99 8653.34,7005.03C8677.75,6997.08 8695.05,6987.02 8705.25,6974.86C8715.45,6962.69 8719.47,6946.67 8717.28,6926.78C8714.2,6898.65 8698.77,6879.97 8671.01,6870.74C8643.25,6861.52 8598.32,6860.31 8536.24,6867.12ZM8592.78,6979.83L8502.2,6989.76L8493.62,6911.55L8584.2,6901.62L8592.78,6979.83Z" style="fill:rgb(51,102,153);fill-rule:nonzero;"/>
                </g>
                <g transform="matrix(-0.764494,-0.791984,0.791984,-0.764494,-4318.52,16552.4)">
                    <path d="M8740.55,6569.93L8666.32,6588.37L8632,6450.22L8315.55,6528.83C8337.26,6533.24 8358.17,6547.59 8378.28,6571.88C8398.4,6596.17 8412.22,6623.47 8419.75,6653.78L8343.74,6672.66C8335.57,6639.74 8321.02,6612.06 8300.11,6589.6C8279.19,6567.15 8254.42,6552.43 8225.79,6545.47L8202.33,6451L8607.21,6350.41L8578.71,6235.7L8652.94,6217.26L8740.55,6569.93Z" style="fill:rgb(51,102,153);fill-rule:nonzero;"/>
                </g>
                <g transform="matrix(-0.764494,-0.791984,0.791984,-0.764494,-4318.52,16552.4)">
                    <path d="M8246.28,5830.24C8323.31,5800.12 8387.73,5791.69 8439.55,5804.95C8491.36,5818.22 8528.11,5852.57 8549.79,5908.02C8571.56,5963.68 8567.81,6013.55 8538.55,6057.61C8509.28,6101.67 8456.02,6138.8 8378.77,6169.01C8298.79,6200.29 8233.92,6209.75 8184.15,6197.38C8134.39,6185.01 8098,6149.4 8074.99,6090.56C8052.77,6033.75 8056.06,5983.88 8084.84,5940.92C8113.62,5897.97 8167.44,5861.07 8246.28,5830.24ZM8283.87,5926.35C8243.88,5941.99 8213.17,5956.75 8191.75,5970.63C8170.32,5984.51 8156.23,5998.53 8149.46,6012.71C8142.69,6026.88 8142.95,6043.28 8150.23,6061.92C8157.88,6081.46 8169.08,6094.36 8183.85,6100.64C8198.61,6106.91 8218.55,6107.83 8243.66,6103.38C8268.77,6098.93 8301.32,6088.88 8341.31,6073.24C8380.85,6057.78 8411.36,6043.03 8432.85,6029C8454.35,6014.96 8468.43,6000.74 8475.11,5986.34C8481.8,5971.94 8481.49,5955.42 8474.2,5936.79C8463.9,5910.43 8444.14,5896.42 8414.93,5894.74C8385.72,5893.07 8342.03,5903.6 8283.87,5926.35ZM8367.82,6020.44L8282.95,6053.63L8254.3,5980.35L8339.16,5947.16L8367.82,6020.44Z" style="fill:rgb(51,102,153);fill-rule:nonzero;"/>
                </g>
                <g transform="matrix(-0.764494,-0.791984,0.791984,-0.764494,-4318.52,16552.4)">
                    <path d="M8403.14,5585.23L8336.28,5622.39L8267.12,5497.96L7982.12,5656.38C8004.23,5654.97 8028.16,5663.37 8053.91,5681.58C8079.66,5699.78 8100.12,5722.53 8115.3,5749.83L8046.85,5787.88C8030.37,5758.24 8009.11,5735.3 7983.06,5719.08C7957.02,5702.85 7929.27,5695.11 7899.81,5695.85L7852.52,5610.77L8217.16,5408.08L8159.74,5304.76L8226.59,5267.61L8403.14,5585.23Z" style="fill:rgb(51,102,153);fill-rule:nonzero;"/>
                </g>
                <g transform="matrix(-0.764494,-0.791984,0.791984,-0.764494,-4318.52,16552.4)">
                    <path d="M8141.7,5136.45L8080.26,5181.99L7995.49,5067.62L7733.52,5261.76C7755.26,5257.49 7780.08,5262.71 7807.98,5277.41C7835.88,5292.11 7859.13,5312.01 7877.72,5337.1L7814.8,5383.72C7794.61,5356.48 7770.55,5336.5 7742.61,5323.8C7714.68,5311.1 7686.15,5307.04 7657.05,5311.6L7599.09,5233.39L7934.27,4985L7863.89,4890.03L7925.34,4844.49L8141.7,5136.45Z" style="fill:rgb(51,102,153);fill-rule:nonzero;"/>
                </g>
                <g transform="matrix(-0.764494,-0.791984,0.791984,-0.764494,-4318.52,16552.4)">
                    <path d="M7401.92,4643.08C7461.56,4585.78 7517.86,4553.35 7570.81,4545.79C7623.76,4538.23 7670.86,4555.91 7712.1,4598.84C7753.51,4641.95 7769.12,4689.45 7758.93,4741.36C7748.74,4793.26 7713.73,4847.95 7653.91,4905.41C7591.98,4964.9 7535.66,4998.45 7484.95,5006.06C7434.24,5013.67 7387,4994.69 7343.22,4949.12C7300.97,4905.13 7284.93,4857.79 7295.09,4807.09C7305.26,4756.4 7340.86,4701.72 7401.92,4643.08ZM7473.41,4717.5C7442.44,4747.25 7419.72,4772.63 7405.23,4793.65C7390.75,4814.67 7383.09,4833.02 7382.25,4848.7C7381.42,4864.39 7387.93,4879.44 7401.79,4893.87C7416.33,4909 7431.62,4916.64 7447.66,4916.79C7463.7,4916.94 7482.48,4910.16 7503.98,4896.44C7525.48,4882.73 7551.71,4861 7582.67,4831.25C7613.29,4801.84 7635.84,4776.54 7650.33,4755.35C7664.82,4734.16 7672.39,4715.64 7673.06,4699.77C7673.72,4683.91 7667.12,4668.77 7653.27,4654.34C7633.66,4633.93 7610.04,4628.54 7582.41,4638.16C7554.79,4647.79 7518.45,4674.23 7473.41,4717.5ZM7586.97,4772.32L7521.25,4835.45L7466.74,4778.71L7532.46,4715.58L7586.97,4772.32Z" style="fill:rgb(51,102,153);fill-rule:nonzero;"/>
                </g>
                <g transform="matrix(-0.764494,-0.791984,0.791984,-0.764494,-4318.52,16552.4)">
                    <path d="M7455.08,4358.2L7407.41,4418.02L7296.08,4329.29L7092.86,4584.28C7112.77,4574.57 7138.1,4573.23 7168.84,4580.26C7199.58,4587.29 7227.16,4600.53 7251.59,4620L7202.78,4681.24C7176.26,4660.1 7147.86,4646.99 7117.6,4641.9C7087.34,4636.82 7058.73,4640.22 7031.78,4652.12L6955.65,4591.45L7215.66,4265.2L7123.23,4191.53L7170.89,4131.72L7455.08,4358.2Z" style="fill:rgb(51,102,153);fill-rule:nonzero;"/>
                </g>
                <g transform="matrix(-0.764494,-0.791984,0.791984,-0.764494,-4318.52,16552.4)">
                    <path d="M6613.41,4071.91C6656.29,4001.19 6702.34,3955.35 6751.56,3934.41C6800.77,3913.47 6850.84,3918.43 6901.74,3949.29C6952.85,3980.28 6980.16,4022.17 6983.69,4074.95C6987.2,4127.72 6967.46,4189.58 6924.45,4260.51C6879.93,4333.94 6834.15,4380.86 6787.11,4401.27C6740.07,4421.68 6689.53,4415.5 6635.5,4382.74C6583.34,4351.12 6555.65,4309.51 6552.42,4257.9C6549.18,4206.3 6569.51,4144.3 6613.41,4071.91ZM6701.65,4125.41C6679.39,4162.13 6663.97,4192.51 6655.38,4216.55C6646.8,4240.59 6644.12,4260.29 6647.36,4275.66C6650.59,4291.03 6660.76,4303.91 6677.87,4314.28C6695.81,4325.16 6712.55,4328.6 6728.09,4324.62C6743.63,4320.63 6760.02,4309.24 6777.27,4290.45C6794.51,4271.66 6814.26,4243.91 6836.52,4207.19C6858.53,4170.89 6873.81,4140.64 6882.35,4116.43C6890.9,4092.22 6893.45,4072.37 6890,4056.88C6886.56,4041.38 6876.29,4028.44 6859.18,4018.07C6834.98,4003.4 6810.77,4004.27 6786.55,4020.68C6762.33,4037.1 6734.03,4072.01 6701.65,4125.41ZM6825.49,4149.15L6778.25,4227.07L6710.97,4186.27L6758.22,4108.36L6825.49,4149.15Z" style="fill:rgb(51,102,153);fill-rule:nonzero;"/>
                </g>
                <g transform="matrix(-0.764494,-0.791984,0.791984,-0.764494,-4318.52,16552.4)">
                    <path d="M6589.17,3781.92L6558.63,3852.05L6428.11,3795.21L6297.92,4094.15C6314.63,4079.61 6338.74,4071.75 6370.26,4070.57C6401.77,4069.4 6431.85,4075.04 6460.48,4087.51L6429.21,4159.31C6398.11,4145.77 6367.3,4140.47 6336.75,4143.39C6306.2,4146.32 6279.45,4157.03 6256.51,4175.51L6167.26,4136.64L6333.83,3754.15L6225.46,3706.95L6256,3636.83L6589.17,3781.92Z" style="fill:rgb(51,102,153);fill-rule:nonzero;"/>
                </g>
                <g transform="matrix(-0.764494,-0.791984,0.791984,-0.764494,-4318.52,16552.4)">
                    <path d="M6107.72,3583.84L6086.66,3657.37L5949.81,3618.17L5860.04,3931.64C5874.69,3915.03 5897.56,3904.06 5928.65,3898.75C5959.73,3893.45 5990.29,3895.09 6020.31,3903.69L5998.75,3978.97C5966.15,3969.64 5934.9,3968.43 5905,3975.35C5875.1,3982.27 5849.99,3996.39 5829.67,4017.73L5736.09,3990.93L5850.95,3589.86L5737.31,3557.32L5758.37,3483.79L6107.72,3583.84Z" style="fill:rgb(51,102,153);fill-rule:nonzero;"/>
                </g>
                <g transform="matrix(-0.764494,-0.791984,0.791984,-0.764494,-4318.52,16552.4)">
                    <path d="M5220.22,3643.06C5232.57,3561.28 5257.42,3501.25 5294.78,3462.97C5332.14,3424.7 5380.26,3410 5439.12,3418.89C5498.22,3427.81 5539.56,3455.95 5563.13,3503.3C5586.7,3550.65 5592.29,3615.34 5579.91,3697.36C5567.09,3782.28 5542.9,3843.21 5507.34,3880.16C5471.79,3917.1 5422.77,3930.86 5360.29,3921.43C5299.98,3912.32 5258.4,3884.58 5235.55,3838.2C5212.69,3791.82 5207.59,3726.77 5220.22,3643.06ZM5322.27,3658.47C5315.86,3700.93 5313.32,3734.9 5314.65,3760.39C5315.98,3785.88 5321.1,3805.1 5330.01,3818.04C5338.91,3830.98 5353.25,3838.94 5373.03,3841.93C5393.78,3845.06 5410.56,3841.8 5423.36,3832.13C5436.17,3822.47 5446.92,3805.65 5455.59,3781.67C5464.27,3757.69 5471.82,3724.47 5478.23,3682.01C5484.56,3640.04 5487.01,3606.23 5485.58,3580.6C5484.14,3554.97 5478.85,3535.67 5469.71,3522.69C5460.56,3509.72 5446.1,3501.73 5426.32,3498.75C5398.34,3494.52 5376.33,3504.65 5360.3,3529.12C5344.27,3553.6 5331.59,3596.71 5322.27,3658.47ZM5445.7,3632.69L5432.1,3722.79L5354.3,3711.05L5367.9,3620.94L5445.7,3632.69Z" style="fill:rgb(51,102,153);fill-rule:nonzero;"/>
                </g>
                <g transform="matrix(-0.764494,-0.791984,0.791984,-0.764494,-4318.52,16552.4)">
                    <path d="M5087.18,3384.88L5085.9,3461.35L4943.57,3458.98L4938.14,3785C4947.99,3765.16 4967.23,3748.64 4995.88,3735.45C5024.53,3722.27 5054.46,3715.93 5085.68,3716.45L5084.38,3794.76C5050.47,3794.19 5019.98,3801.13 4992.9,3815.56C4965.82,3829.99 4945.23,3850.15 4931.13,3876.02L4833.8,3874.4L4840.75,3457.27L4722.56,3455.3L4723.84,3378.83L5087.18,3384.88Z" style="fill:rgb(51,102,153);fill-rule:nonzero;"/>
                </g>
                <g transform="matrix(-0.764494,-0.791984,0.791984,-0.764494,-4318.52,16552.4)">
                    <path d="M4568.09,3386.48L4576.69,3462.48L4435.24,3478.5L4471.94,3802.5C4479.14,3781.55 4496.1,3762.69 4522.8,3745.91C4549.5,3729.14 4578.37,3718.99 4609.4,3715.48L4618.22,3793.3C4584.52,3797.11 4555.18,3807.93 4530.18,3825.73C4505.19,3843.54 4487.38,3866.18 4476.74,3893.66L4380.02,3904.62L4333.06,3490.08L4215.61,3503.38L4207,3427.38L4568.09,3386.48Z" style="fill:rgb(51,102,153);fill-rule:nonzero;"/>
                </g>
                <g transform="matrix(-0.764494,-0.791984,0.791984,-0.764494,-4318.52,16552.4)">
                    <path d="M4052.1,3455.56L4070.59,3529.78L3932.46,3564.2L4011.32,3880.59C4015.72,3858.88 4030.05,3837.96 4054.33,3817.83C4078.6,3797.69 4105.89,3783.85 4136.19,3776.3L4155.13,3852.29C4122.22,3860.49 4094.55,3875.06 4072.11,3895.99C4049.67,3916.92 4034.98,3941.7 4028.03,3970.34L3933.58,3993.88L3832.68,3589.07L3717.99,3617.66L3699.49,3543.45L4052.1,3455.56Z" style="fill:rgb(51,102,153);fill-rule:nonzero;"/>
                </g>
                <g transform="matrix(-0.764494,-0.791984,0.791984,-0.764494,-4318.52,16552.4)">
                    <path d="M3312.83,3950.39C3282.64,3873.39 3274.17,3808.97 3287.39,3757.15C3300.62,3705.32 3334.95,3668.54 3390.37,3646.82C3446.02,3625.01 3495.89,3628.72 3539.97,3657.95C3584.05,3687.18 3621.23,3740.41 3651.5,3817.64C3682.84,3897.6 3692.34,3962.46 3680.01,4012.24C3667.68,4062.01 3632.11,4098.42 3573.28,4121.48C3516.49,4143.74 3466.61,4140.49 3423.63,4111.74C3380.66,4082.99 3343.72,4029.21 3312.83,3950.39ZM3408.91,3912.73C3424.58,3952.71 3439.36,3983.4 3453.26,4004.82C3467.15,4026.23 3481.19,4040.31 3495.37,4047.07C3509.55,4053.83 3525.95,4053.56 3544.58,4046.26C3564.11,4038.6 3577.01,4027.39 3583.27,4012.62C3589.54,3997.85 3590.43,3977.91 3585.97,3952.8C3581.5,3927.69 3571.43,3895.15 3555.76,3855.17C3540.27,3815.65 3525.49,3785.14 3511.44,3763.66C3497.39,3742.18 3483.16,3728.11 3468.75,3721.44C3454.34,3714.77 3437.83,3715.08 3419.2,3722.38C3392.85,3732.71 3378.85,3752.48 3377.2,3781.69C3375.55,3810.9 3386.12,3854.58 3408.91,3912.73ZM3502.93,3828.71L3536.19,3913.55L3462.93,3942.26L3429.68,3857.42L3502.93,3828.71Z" style="fill:rgb(51,102,153);fill-rule:nonzero;"/>
                </g>
                <g transform="matrix(-0.764494,-0.791984,0.791984,-0.764494,-4318.52,16552.4)">
                    <path d="M2881.59,4179.48C2841.57,4107.1 2824.72,4044.35 2831.04,3991.24C2837.36,3938.12 2866.56,3897.16 2918.66,3868.36C2970.97,3839.44 3020.89,3836.58 3068.43,3859.78C3115.96,3882.98 3159.8,3930.88 3199.93,4003.47C3241.49,4078.63 3259.41,4141.69 3253.72,4192.65C3248.02,4243.61 3217.52,4284.37 3162.22,4314.95C3108.84,4344.46 3058.97,4347.78 3012.59,4324.91C2966.22,4302.04 2922.55,4253.57 2881.59,4179.48ZM2971.9,4129.55C2992.68,4167.12 3011.36,4195.61 3027.94,4215.02C3044.53,4234.43 3060.29,4246.55 3075.23,4251.39C3090.17,4256.23 3106.4,4253.81 3123.91,4244.13C3142.27,4233.98 3153.59,4221.17 3157.86,4205.71C3162.13,4190.24 3160.41,4170.36 3152.69,4146.05C3144.96,4121.75 3130.71,4090.81 3109.94,4053.23C3089.4,4016.08 3070.75,3987.78 3054.01,3968.32C3037.26,3948.87 3021.3,3936.78 3006.15,3932.06C2990.99,3927.33 2974.66,3929.81 2957.15,3939.49C2932.38,3953.18 2921.1,3974.62 2923.29,4003.79C2925.48,4032.97 2941.68,4074.89 2971.9,4129.55ZM3054.1,4033.92L3098.19,4113.67L3029.33,4151.74L2985.24,4071.99L3054.1,4033.92Z" style="fill:rgb(51,102,153);fill-rule:nonzero;"/>
                </g>
                <g transform="matrix(-0.764494,-0.791984,0.791984,-0.764494,-4318.52,16552.4)">
                    <path d="M2619.16,4055.47L2664.74,4116.89L2550.43,4201.73L2744.77,4463.56C2740.49,4441.82 2745.69,4417 2760.37,4389.09C2775.05,4361.18 2794.92,4337.91 2820,4319.3L2866.68,4382.19C2839.44,4402.4 2819.49,4426.48 2806.81,4454.42C2794.13,4482.37 2790.08,4510.89 2794.67,4540L2716.51,4598.01L2467.86,4263.02L2372.95,4333.47L2327.36,4272.05L2619.16,4055.47Z" style="fill:rgb(51,102,153);fill-rule:nonzero;"/>
                </g>
                <g transform="matrix(-0.764494,-0.791984,0.791984,-0.764494,-4318.52,16552.4)">
                    <path d="M2126.34,4795.62C2069,4736.02 2036.53,4679.74 2028.93,4626.8C2021.33,4573.85 2038.98,4526.74 2081.88,4485.47C2124.95,4444.03 2172.45,4428.39 2224.36,4438.54C2276.27,4448.69 2330.98,4483.65 2388.49,4543.43C2448.03,4605.32 2481.62,4661.61 2489.26,4712.32C2496.91,4763.02 2477.96,4810.28 2432.43,4854.09C2388.47,4896.37 2341.14,4912.45 2290.44,4902.32C2239.73,4892.2 2185.03,4856.63 2126.34,4795.62ZM2200.71,4724.07C2230.48,4755.02 2255.88,4777.72 2276.91,4792.19C2297.94,4806.66 2316.3,4814.31 2331.98,4815.13C2347.67,4815.95 2362.72,4809.43 2377.14,4795.56C2392.26,4781.01 2399.89,4765.72 2400.02,4749.67C2400.16,4733.63 2393.37,4714.86 2379.63,4693.37C2365.9,4671.88 2344.15,4645.67 2314.38,4614.72C2284.95,4584.13 2259.63,4561.6 2238.43,4547.12C2217.23,4532.65 2198.7,4525.09 2182.84,4524.44C2166.97,4523.78 2151.84,4530.39 2137.42,4544.26C2117.02,4563.88 2111.65,4587.51 2121.29,4615.13C2130.94,4642.75 2157.41,4679.06 2200.71,4724.07ZM2255.45,4610.48L2318.63,4676.15L2261.92,4730.69L2198.75,4665.03L2255.45,4610.48Z" style="fill:rgb(51,102,153);fill-rule:nonzero;"/>
                </g>
            </g>
            <g id="Black-tree" serif:id="Black tree" transform="matrix(18.8976,0,0,18.8976,-27638.7,-26253)">
                <g transform="matrix(1,0,0,1.17795,15.9494,-265.64)">
                    <path d="M1348.63,1790.5L1312.05,1790.5L1312.05,1831.2C1311.78,1839.03 1302.65,1842.47 1295.03,1845.15L1366.31,1845.15C1358.86,1842.54 1348.63,1839.27 1348.63,1831.2L1348.63,1790.5Z" style="fill:rgb(51,102,153);"/>
                </g>
                <g id="Ground" transform="matrix(1,0,0,1,15.781,53.6553)">
                    <path d="M1248.5,1854.2L1413.81,1854.2" style="fill:none;stroke:rgb(51,102,153);stroke-width:8.33px;"/>
                </g>
                <g id="Micro-points" serif:id="Micro points" transform="matrix(1,0,0,1,15.781,53.6553)">
                    <g transform="matrix(1,0,0,1,-1.7375,-3.47499)">
                        <circle cx="1312.86" cy="1708.2" r="2.854" style="fill:rgb(255,19,0);stroke:rgb(51,102,153);stroke-width:5.83px;stroke-linecap:butt;"/>
                    </g>
                    <g transform="matrix(1,0,0,1,-40.2106,-74.4641)">
                        <circle cx="1312.86" cy="1708.2" r="2.854" style="fill:rgb(255,19,0);stroke:rgb(51,102,153);stroke-width:5.83px;stroke-linecap:butt;"/>
                    </g>
                    <g transform="matrix(1,0,0,1,75.7051,-74.4641)">
                        <circle cx="1312.86" cy="1708.2" r="2.854" style="fill:rgb(255,19,0);stroke:rgb(51,102,153);stroke-width:5.83px;stroke-linecap:butt;"/>
                    </g>
                    <g transform="matrix(1,0,0,1,114.426,-28.5446)">
                        <circle cx="1312.86" cy="1708.2" r="2.854" style="fill:rgb(255,19,0);stroke:rgb(51,102,153);stroke-width:5.83px;stroke-linecap:butt;"/>
                    </g>
                    <g transform="matrix(1,0,0,1,76.9462,53.6141)">
                        <circle cx="1312.86" cy="1708.2" r="2.854" style="fill:rgb(255,19,0);stroke:rgb(51,102,153);stroke-width:5.83px;stroke-linecap:butt;"/>
                    </g>
                    <g transform="matrix(1,0,0,1,-41.4517,53.6141)">
                        <circle cx="1312.86" cy="1708.2" r="2.854" style="fill:rgb(255,19,0);stroke:rgb(51,102,153);stroke-width:5.83px;stroke-linecap:butt;"/>
                    </g>
                    <g transform="matrix(1,0,0,1,-79.1801,-28.5446)">
                        <circle cx="1312.86" cy="1708.2" r="2.854" style="fill:rgb(255,19,0);stroke:rgb(51,102,153);stroke-width:5.83px;stroke-linecap:butt;"/>
                    </g>
                    <g transform="matrix(1,0,0,1,37.7285,-3.47499)">
                        <circle cx="1312.86" cy="1708.2" r="2.854" style="fill:rgb(255,19,0);stroke:rgb(51,102,153);stroke-width:5.83px;stroke-linecap:butt;"/>
                    </g>
                </g>
                <g id="Small-points" serif:id="Small points" transform="matrix(1,0,0,1,15.781,53.6553)">
                    <g transform="matrix(0.308193,0,0,0.308193,888.15,1274.88)">
                        <circle cx="1113.68" cy="1673.09" r="21.091" style="fill:none;stroke:rgb(51,102,153);stroke-width:21.63px;"/>
                    </g>
                    <g transform="matrix(0.308193,0,0,0.308193,869.941,1244.99)">
                        <circle cx="1113.68" cy="1673.09" r="21.091" style="fill:none;stroke:rgb(51,102,153);stroke-width:21.63px;"/>
                    </g>
                    <g transform="matrix(0.308193,0,0,0.308193,858.574,1213.36)">
                        <circle cx="1113.68" cy="1673.09" r="21.091" style="fill:none;stroke:rgb(51,102,153);stroke-width:21.63px;"/>
                    </g>
                    <g transform="matrix(0.308193,0,0,0.308193,896.781,1190.99)">
                        <circle cx="1113.68" cy="1673.09" r="21.091" style="fill:none;stroke:rgb(51,102,153);stroke-width:21.63px;"/>
                    </g>
                    <g transform="matrix(0.308193,0,0,0.308193,869.317,1141)">
                        <circle cx="1113.68" cy="1673.09" r="21.091" style="fill:none;stroke:rgb(51,102,153);stroke-width:21.63px;"/>
                    </g>
                    <g transform="matrix(0.308193,0,0,0.308193,887.595,1107.28)">
                        <circle cx="1113.68" cy="1673.09" r="21.091" style="fill:none;stroke:rgb(51,102,153);stroke-width:21.63px;"/>
                    </g>
                    <g transform="matrix(0.308193,0,0,0.308193,915.114,1086.07)">
                        <circle cx="1113.68" cy="1673.09" r="21.091" style="fill:none;stroke:rgb(51,102,153);stroke-width:21.63px;"/>
                    </g>
                    <g transform="matrix(0.308193,0,0,0.308193,968.32,1099.88)">
                        <circle cx="1113.68" cy="1673.09" r="21.091" style="fill:none;stroke:rgb(51,102,153);stroke-width:21.63px;"/>
                    </g>
                    <g transform="matrix(0.308193,0,0,0.308193,1009.27,1108.1)">
                        <circle cx="1113.68" cy="1673.09" r="21.091" style="fill:none;stroke:rgb(51,102,153);stroke-width:21.63px;"/>
                    </g>
                    <g transform="matrix(0.308193,0,0,0.308193,1059.62,1086.07)">
                        <circle cx="1113.68" cy="1673.09" r="21.091" style="fill:none;stroke:rgb(51,102,153);stroke-width:21.63px;"/>
                    </g>
                    <g transform="matrix(0.308193,0,0,0.308193,1087.06,1107.28)">
                        <circle cx="1113.68" cy="1673.09" r="21.091" style="fill:none;stroke:rgb(51,102,153);stroke-width:21.63px;"/>
                    </g>
                    <g transform="matrix(0.308193,0,0,0.308193,1105.15,1141.16)">
                        <circle cx="1113.68" cy="1673.09" r="21.091" style="fill:none;stroke:rgb(51,102,153);stroke-width:21.63px;"/>
                    </g>
                    <g transform="matrix(0.308193,0,0,0.308193,1078.01,1190.99)">
                        <circle cx="1113.68" cy="1673.09" r="21.091" style="fill:none;stroke:rgb(51,102,153);stroke-width:21.63px;"/>
                    </g>
                    <g transform="matrix(0.308193,0,0,0.308193,1116.33,1213.36)">
                        <circle cx="1113.68" cy="1673.09" r="21.091" style="fill:none;stroke:rgb(51,102,153);stroke-width:21.63px;"/>
                    </g>
                    <g transform="matrix(0.308193,0,0,0.308193,1069.13,1237.2)">
                        <circle cx="1113.68" cy="1673.09" r="21.091" style="fill:none;stroke:rgb(51,102,153);stroke-width:21.63px;"/>
                    </g>
                    <g transform="matrix(0.308193,0,0,0.308193,1104.66,1244.93)">
                        <circle cx="1113.68" cy="1673.09" r="21.091" style="fill:none;stroke:rgb(51,102,153);stroke-width:21.63px;"/>
                    </g>
                    <g transform="matrix(0.308193,0,0,0.308193,1086.73,1274.86)">
                        <circle cx="1113.68" cy="1673.09" r="21.091" style="fill:none;stroke:rgb(51,102,153);stroke-width:21.63px;"/>
                    </g>
                    <g transform="matrix(0.308193,0,0,0.308193,905.201,1236.78)">
                        <circle cx="1113.68" cy="1673.09" r="21.091" style="fill:none;stroke:rgb(51,102,153);stroke-width:21.63px;"/>
                    </g>
                </g>
                <g id="Big-points" serif:id="Big points" transform="matrix(1,0,0,1,15.781,53.6553)">
                    <g transform="matrix(0.521558,0,0,0.521558,630.186,819.895)">
                        <circle cx="1113.68" cy="1673.09" r="21.091" style="fill:none;stroke:rgb(51,102,153);stroke-width:14.38px;"/>
                    </g>
                    <g transform="matrix(0.521558,0,0,0.521558,710.724,718.033)">
                        <circle cx="1113.68" cy="1673.09" r="21.091" style="fill:none;stroke:rgb(51,102,153);stroke-width:14.38px;"/>
                    </g>
                    <g transform="matrix(0.521558,0,0,0.521558,749.604,706.332)">
                        <circle cx="1113.68" cy="1673.09" r="21.091" style="fill:none;stroke:rgb(51,102,153);stroke-width:14.38px;"/>
                    </g>
                    <g transform="matrix(0.521558,0,0,0.521558,788.695,718.033)">
                        <circle cx="1113.68" cy="1673.09" r="21.091" style="fill:none;stroke:rgb(51,102,153);stroke-width:14.38px;"/>
                    </g>
                    <g transform="matrix(0.521558,0,0,0.521558,869.233,820.035)">
                        <circle cx="1113.68" cy="1673.09" r="21.091" style="fill:none;stroke:rgb(51,102,153);stroke-width:14.38px;"/>
                    </g>
                    <g transform="matrix(0.521558,0,0,0.521558,813.68,919.612)">
                        <circle cx="1113.68" cy="1673.09" r="21.091" style="fill:none;stroke:rgb(51,102,153);stroke-width:14.38px;"/>
                    </g>
                    <g transform="matrix(0.521558,0,0,0.521558,685.471,919.555)">
                        <circle cx="1113.68" cy="1673.09" r="21.091" style="fill:none;stroke:rgb(51,102,153);stroke-width:14.38px;"/>
                    </g>
                </g>
                <g id="Big-branches" serif:id="Big branches" transform="matrix(1,0,0,1,15.781,53.6553)">
                    <path d="M1219.04,1656.54L1233.18,1656.54L1259.12,1683.51L1257.71,1694.89L1268.94,1704.65L1282.4,1703.15" style="fill:none;stroke:rgb(51,102,153);stroke-width:9.17px;stroke-linecap:butt;"/>
                    <path d="M1443.15,1656.86L1428.53,1656.86L1402.28,1683.86L1402.28,1697.34L1395.03,1704.05L1378.34,1704.05" style="fill:none;stroke:rgb(51,102,153);stroke-width:9.17px;stroke-linecap:butt;"/>
                    <path d="M1369.48,1601.63L1369.48,1641.84L1356.16,1653.96L1356.16,1678.92L1331.54,1691.84" style="fill:none;stroke:rgb(51,102,153);stroke-width:9.17px;stroke-linecap:butt;"/>
                    <path d="M1356.16,1774.6L1356.16,1751.72L1379.07,1751.72L1379.07,1738.35L1389.16,1729.02L1453.06,1729.02" style="fill:none;stroke:rgb(51,102,153);stroke-width:9.17px;stroke-linecap:butt;"/>
                    <g transform="matrix(-1,0,0,1,2661.16,0)">
                        <path d="M1356.16,1774.6L1356.16,1751.72L1379.07,1751.72L1379.07,1738.35L1389.16,1729.02L1453.06,1729.02" style="fill:none;stroke:rgb(51,102,153);stroke-width:9.17px;stroke-linecap:butt;"/>
                    </g>
                    <g transform="matrix(1,0,0,1,0.443341,0)">
                        <path d="M1330.11,1790.9L1330.16,1589.41" style="fill:none;stroke:rgb(51,102,153);stroke-width:9.17px;stroke-linecap:butt;"/>
                    </g>
                    <g transform="matrix(1.03016,0,0,1,-41.6574,0.354677)">
                        <path d="M1331.16,1803.23L1358.58,1774.25L1375.95,1774.25L1386.99,1784.22" style="fill:none;stroke:rgb(51,102,153);stroke-width:9.03px;stroke-linecap:butt;"/>
                    </g>
                    <g transform="matrix(-1.03016,0,0,1,2702.85,0.354677)">
                        <path d="M1331.16,1803.23L1358.58,1774.25L1375.95,1774.25L1386.99,1784.22" style="fill:none;stroke:rgb(51,102,153);stroke-width:9.03px;stroke-linecap:butt;"/>
                    </g>
                    <path d="M1291.51,1601.63L1291.41,1626.99L1303.86,1640.1L1303.86,1669.33L1330.84,1692.55" style="fill:none;stroke:rgb(51,102,153);stroke-width:9.17px;stroke-linecap:butt;"/>
                    <path d="M1425.57,1627.39L1378.34,1673.16L1378.34,1704.05L1331.54,1748.81" style="fill:none;stroke:rgb(51,102,153);stroke-width:9.17px;stroke-linecap:butt;"/>
                    <path d="M1235.32,1627.58L1282.4,1674.19L1282.4,1703.15L1330.56,1748.81" style="fill:none;stroke:rgb(51,102,153);stroke-width:9.17px;stroke-linecap:butt;"/>
                </g>
                <g id="Small-branches" serif:id="Small branches" transform="matrix(1,0,0,1,15.781,53.6553)">
                    <path d="M1240.01,1713.13L1240.01,1729.02" style="fill:none;stroke:rgb(51,102,153);stroke-width:5.83px;stroke-linecap:butt;"/>
                    <path d="M1258.39,1608.37L1258.39,1650.41" style="fill:none;stroke:rgb(51,102,153);stroke-width:5.83px;stroke-linecap:butt;"/>
                    <path d="M1402.78,1608.19L1402.78,1648.17" style="fill:none;stroke:rgb(51,102,153);stroke-width:5.83px;stroke-linecap:butt;"/>
                    <path d="M1421.1,1713.45L1421.1,1729.02" style="fill:none;stroke:rgb(51,102,153);stroke-width:5.83px;stroke-linecap:butt;"/>
                    <path d="M1418.57,1754.4L1441.55,1759.1" style="fill:none;stroke:rgb(51,102,153);stroke-width:5.83px;stroke-linecap:butt;"/>
                    <path d="M1219.49,1759.1L1242.15,1754.11" style="fill:none;stroke:rgb(51,102,153);stroke-width:5.83px;stroke-linecap:butt;"/>
                    <path d="M1315.79,1620.44L1330.56,1635.59" style="fill:none;stroke:rgb(51,102,153);stroke-width:5.83px;stroke-linecap:butt;"/>
                    <path d="M1348.08,1628.97L1330.58,1646.06" style="fill:none;stroke:rgb(51,102,153);stroke-width:5.83px;stroke-linecap:butt;"/>
                </g>
            </g>
        </g>
    </g>
</svg>
